<svg width="720" height="405" viewBox="0 0 720 405" fill="none" xmlns="http://www.w3.org/2000/svg">
<g clip-path="url(#clip0_1_144)">
<path d="M-1.07279e-05 7.0242V13.9219H2.19374C12.2625 13.9219 24.4125 18.5414 34.0875 26.0086C39.825 30.5016 49.8375 42.2086 49.3312 43.9172C49.2187 44.2336 46.8 45.6258 43.9875 46.9547L38.8125 49.3594L35.0437 44.8664C27.0562 35.3109 17.1562 29.5523 6.01874 27.8438C3.59999 27.5273 1.23749 27.2109 0.787489 27.2109C0.168739 27.2109 -1.07279e-05 28.5399 -1.07279e-05 33.8555C-1.07279e-05 41.3227 -0.506261 40.6266 5.34374 41.4492C12.3187 42.4617 20.7 47.3344 25.4812 53.093C26.9437 54.8648 28.125 56.5102 28.125 56.7633C28.125 57.2063 24.3 61.1297 20.9812 64.1672C19.6312 65.3062 19.6312 65.3062 16.5937 62.0789C12.9937 58.282 7.81874 55.3711 3.20624 54.5484L-1.07279e-05 53.9789V60.75V67.5844L2.41874 68.2172C5.84999 69.2297 8.49374 71.4445 10.0687 74.6086C11.3625 77.2031 11.3625 77.4563 10.4625 79.4813L9.56249 81.6328L4.78124 81.2531L-1.07279e-05 80.8102V87.8977V94.9219H2.19374C12.2625 94.9219 24.4125 99.5414 34.0875 107.009C39.825 111.502 49.8375 123.209 49.3312 124.917C49.2187 125.234 46.8 126.626 43.9875 127.955L38.8125 130.359L35.0437 125.866C27.0562 116.311 17.1562 110.552 6.01874 108.844C3.59999 108.527 1.23749 108.211 0.787489 108.211C0.168739 108.211 -1.07279e-05 109.54 -1.07279e-05 114.855C-1.07279e-05 122.323 -0.506261 121.627 5.34374 122.449C12.3187 123.462 20.7 128.334 25.4812 134.093C26.9437 135.865 28.125 137.51 28.125 137.763C28.125 138.206 24.3 142.13 20.9812 145.167C19.6312 146.306 19.6312 146.306 16.5937 143.079C12.9937 139.282 7.81874 136.371 3.26249 135.548L-1.07279e-05 134.979V141.75V148.584L2.41874 149.217C5.84999 150.23 8.49374 152.445 10.0687 155.609C11.3625 158.203 11.3625 158.456 10.4625 160.481L9.56249 162.633L4.78124 162.253L-1.07279e-05 161.81V168.898V175.922H2.19374C12.2625 175.922 24.4125 180.541 34.0875 188.009C39.825 192.502 49.8375 204.209 49.3312 205.917C49.2187 206.234 46.8 207.626 43.9875 208.955L38.8125 211.359L35.0437 206.866C27.0562 197.311 17.1562 191.552 6.01874 189.844C3.59999 189.527 1.23749 189.211 0.787489 189.211C0.168739 189.211 -1.07279e-05 190.54 -1.07279e-05 195.855C-1.07279e-05 203.323 -0.506261 202.627 5.34374 203.449C12.3187 204.462 20.7 209.334 25.4812 215.093C26.9437 216.865 28.125 218.51 28.125 218.763C28.125 219.206 24.3 223.13 20.9812 226.167C19.6312 227.306 19.6312 227.306 16.5937 224.079C12.9937 220.282 7.81874 217.371 3.26249 216.548L-1.07279e-05 215.979V222.75V229.584L2.41874 230.217C5.84999 231.23 8.49374 233.445 10.0687 236.609C11.3625 239.203 11.3625 239.456 10.4625 241.481L9.56249 243.633L4.78124 243.253L-1.07279e-05 242.81V249.898V256.922H2.19374C12.2625 256.922 24.4125 261.541 34.0875 269.009C39.825 273.502 49.8375 285.209 49.3312 286.917C49.2187 287.234 46.8 288.626 43.9875 289.955L38.8125 292.359L35.0437 287.866C27.0562 278.311 17.1562 272.552 6.01874 270.844C3.59999 270.527 1.23749 270.211 0.787489 270.211C0.168739 270.211 -1.07279e-05 271.54 -1.07279e-05 276.856C-1.07279e-05 284.323 -0.506261 283.627 5.34374 284.449C12.3187 285.462 20.7 290.334 25.4812 296.093C26.9437 297.865 28.125 299.51 28.125 299.763C28.125 300.206 24.3 304.13 20.9812 307.167C19.6312 308.306 19.6312 308.306 16.5937 305.079C12.9937 301.282 7.81874 298.371 3.26249 297.548L-1.07279e-05 296.979V303.75V310.584L2.41874 311.217C5.84999 312.23 8.49374 314.445 10.0687 317.609C11.3625 320.203 11.3625 320.456 10.4625 322.481L9.56249 324.633L4.78124 324.253L-1.07279e-05 323.81V330.898V337.922H2.19374C12.2625 337.922 24.4125 342.541 34.0875 350.009C39.825 354.502 49.8375 366.209 49.3312 367.917C49.2187 368.234 46.8 369.626 43.9875 370.955L38.8125 373.359L35.0437 368.866C27.0562 359.311 17.1562 353.552 6.01874 351.844C3.59999 351.527 1.23749 351.211 0.787489 351.211C0.168739 351.211 -1.07279e-05 352.54 -1.07279e-05 357.856C-1.07279e-05 365.323 -0.506261 364.627 5.34374 365.449C12.3187 366.462 20.7 371.334 25.4812 377.093C26.9437 378.865 28.125 380.51 28.125 380.763C28.125 381.206 24.3 385.13 20.9812 388.167C19.6312 389.306 19.6312 389.306 16.5937 386.079C12.9937 382.282 7.81874 379.371 3.26249 378.548L-1.07279e-05 377.979V384.75V391.584L2.41874 392.217C5.73749 393.166 8.43749 395.381 9.95624 398.356C11.1937 400.823 11.25 401.52 10.4062 403.861C10.0125 404.937 10.575 405 17.1 405H24.1875L26.55 402.026C36 390.192 46.1812 383.421 60.1875 379.561C62.1562 379.055 66.6 378.738 72.2812 378.802C80.2125 378.802 81.9562 378.991 86.9062 380.51C93.6562 382.535 102.431 387.281 107.437 391.584C109.462 393.293 113.062 397.027 115.537 399.874L119.925 405H126.9C130.725 405 133.875 404.873 133.875 404.684C133.875 404.557 133.594 403.734 133.256 402.912C132.75 401.709 132.862 400.887 133.762 398.925C137.869 389.939 149.512 389.623 153.956 398.356C155.194 400.823 155.25 401.52 154.406 403.861C154.012 404.937 154.575 405 161.1 405H168.187L170.55 402.026C180 390.192 190.181 383.421 204.187 379.561C206.156 379.055 210.6 378.738 216.281 378.802C224.212 378.802 225.956 378.991 230.906 380.51C237.656 382.535 246.431 387.281 251.437 391.584C253.462 393.293 257.062 397.027 259.537 399.874L263.925 405H270.9C274.725 405 277.875 404.873 277.875 404.684C277.875 404.557 277.594 403.734 277.256 402.912C276.187 400.317 278.775 395.698 282.375 393.609C288.225 390.256 294.919 392.281 297.956 398.356C299.194 400.823 299.25 401.52 298.406 403.861C298.012 404.937 298.575 405 305.1 405H312.187L314.55 402.026C324.338 389.939 334.125 383.421 348.187 379.561C350.156 379.055 354.6 378.738 360.281 378.802C368.213 378.802 369.956 378.991 374.906 380.51C381.656 382.535 390.431 387.281 395.437 391.584C397.463 393.293 401.062 397.027 403.537 399.874L407.925 405H414.956C421.425 405 421.988 404.937 421.594 403.924C420.75 401.52 420.806 400.823 422.044 398.356C425.025 392.47 431.775 390.256 437.344 393.42C439.819 394.812 441 396.141 442.238 398.925C443.137 400.887 443.25 401.709 442.744 402.912C442.406 403.734 442.125 404.557 442.125 404.684C442.125 404.873 445.275 405 449.156 405H456.187L458.55 402.026C468.338 389.939 478.125 383.421 492.188 379.561C494.156 379.055 498.6 378.738 504.281 378.802C512.213 378.802 513.956 378.991 518.906 380.51C525.656 382.535 534.431 387.281 539.438 391.584C541.463 393.293 545.063 397.027 547.538 399.874L551.925 405H558.9C562.725 405 565.875 404.873 565.875 404.684C565.875 404.557 565.594 403.734 565.256 402.912C564.75 401.709 564.863 400.887 565.763 398.925C569.869 389.939 581.513 389.623 585.956 398.356C587.194 400.823 587.25 401.52 586.406 403.861C586.013 404.937 586.575 405 593.1 405H600.188L602.55 402.026C612.338 389.939 622.125 383.421 636.188 379.561C638.156 379.055 642.6 378.738 648.281 378.802C656.213 378.802 657.956 378.991 662.906 380.51C669.656 382.535 678.431 387.281 683.438 391.584C685.463 393.293 689.063 397.027 691.538 399.874L695.925 405H702.956C709.425 405 709.988 404.937 709.594 403.924C708.75 401.52 708.806 400.823 710.044 398.356C711.563 395.381 714.263 393.166 717.581 392.217L720 391.584V384.75V377.979L716.794 378.548C712.181 379.371 707.006 382.282 703.406 386.079C700.369 389.306 700.369 389.306 699.019 388.167C695.306 384.813 691.875 381.206 691.875 380.637C691.875 379.688 697.331 373.866 700.481 371.461C704.194 368.677 708.919 366.588 713.588 365.766C715.725 365.323 718.031 364.88 718.763 364.753C719.944 364.5 720 364.247 720 357.856C720 350.135 720.619 350.578 712.519 352.16C701.888 354.248 694.294 358.678 686.306 367.538L680.963 373.359L675.9 370.955C673.144 369.563 670.725 368.17 670.669 367.854C670.388 367.031 675.281 360.387 679.163 356.273C685.35 349.629 693.731 343.997 701.438 341.213C705.769 339.631 714.094 337.922 717.525 337.922H720V330.898V323.81L715.219 324.253L710.438 324.633L709.538 322.481C708.638 320.456 708.638 320.203 709.931 317.609C711.506 314.445 714.15 312.23 717.581 311.217L720 310.584V303.75V296.979L716.794 297.548C712.181 298.371 707.006 301.282 703.406 305.079C700.369 308.306 700.369 308.306 699.019 307.167C695.306 303.813 691.875 300.206 691.875 299.637C691.875 298.688 697.331 292.866 700.481 290.461C704.194 287.677 708.919 285.588 713.588 284.766C715.725 284.323 718.031 283.88 718.763 283.753C719.944 283.5 720 283.247 720 276.856C720 269.135 720.619 269.578 712.519 271.16C701.888 273.248 694.294 277.678 686.306 286.538L680.963 292.359L675.9 289.955C673.144 288.563 670.725 287.17 670.669 286.854C670.388 286.031 675.281 279.387 679.163 275.273C685.35 268.629 693.731 262.997 701.438 260.213C705.769 258.631 714.094 256.922 717.525 256.922H720V249.898V242.81L715.219 243.253L710.438 243.633L709.538 241.481C708.638 239.456 708.638 239.203 709.931 236.609C711.506 233.445 714.15 231.23 717.581 230.217L720 229.584V222.75V215.979L716.794 216.548C712.181 217.371 707.006 220.282 703.406 224.079C700.369 227.306 700.369 227.306 699.019 226.167C695.306 222.813 691.875 219.206 691.875 218.637C691.875 217.688 697.331 211.866 700.481 209.461C704.194 206.677 708.919 204.588 713.588 203.766C715.725 203.323 718.031 202.88 718.763 202.753C719.944 202.5 720 202.247 720 195.855C720 188.135 720.619 188.578 712.519 190.16C701.888 192.248 694.294 196.678 686.306 205.538L680.963 211.359L675.9 208.955C673.144 207.563 670.725 206.17 670.669 205.854C670.388 205.031 675.281 198.387 679.163 194.273C685.35 187.629 693.731 181.997 701.438 179.213C705.769 177.63 714.094 175.922 717.525 175.922H720V168.898V161.81L715.219 162.253L710.438 162.633L709.538 160.481C708.638 158.456 708.638 158.203 709.931 155.609C711.506 152.445 714.15 150.23 717.581 149.217L720 148.584V141.75V134.979L716.794 135.548C712.181 136.371 707.006 139.282 703.406 143.079C700.369 146.306 700.369 146.306 699.019 145.167C695.306 141.813 691.875 138.206 691.875 137.637C691.875 136.688 697.331 130.866 700.481 128.461C704.194 125.677 708.919 123.588 713.588 122.766C715.725 122.323 718.031 121.88 718.763 121.753C719.944 121.5 720 121.247 720 114.855C720 107.135 720.619 107.578 712.519 109.16C701.888 111.248 694.294 115.678 686.306 124.538L680.963 130.359L675.9 127.955C673.144 126.562 670.725 125.17 670.669 124.854C670.388 124.031 675.281 117.387 679.163 113.273C685.35 106.629 693.731 100.997 701.438 98.2125C705.769 96.6305 714.094 94.9219 717.525 94.9219H720V87.8977V80.8102L715.219 81.2531L710.438 81.6328L709.538 79.4813C708.638 77.4563 708.638 77.2031 709.931 74.6086C711.506 71.4445 714.15 69.2297 717.581 68.2172L720 67.5844V60.75V53.9789L716.794 54.5484C712.181 55.3711 707.006 58.282 703.406 62.0789C700.369 65.3062 700.369 65.3062 699.019 64.1672C695.306 60.8133 691.875 57.2063 691.875 56.6367C691.875 55.6875 697.331 49.8656 700.481 47.4609C704.194 44.6766 708.919 42.5883 713.588 41.7656C715.725 41.3227 718.031 40.8797 718.763 40.7531C719.944 40.5 720 40.2469 720 33.8555C720 26.1352 720.619 26.5781 712.519 28.1602C701.888 30.2484 694.294 34.6781 686.306 43.5375L680.963 49.3594L675.9 46.9547C673.144 45.5625 670.725 44.1703 670.669 43.8539C670.388 43.0312 675.281 36.3867 679.163 32.2734C685.35 25.6289 693.731 19.9969 701.438 17.2125C705.769 15.6305 714.094 13.9219 717.525 13.9219H720V7.0242V0.18985L707.906 0.0632629L695.813 0L696.713 1.64529C697.894 3.60703 697.725 3.79688 692.438 6.32812C690.131 7.4039 687.938 8.47968 687.6 8.60623C687.263 8.79608 685.238 6.89764 683.156 4.42969L679.275 0H647.944H616.613L612.9 4.49295L609.131 8.92264L604.238 6.58124C601.538 5.31561 599.119 4.04999 598.838 3.73358C598.556 3.41718 598.725 2.59451 599.231 1.64529L600.131 0.126556H576H551.869L552.769 1.64529C553.894 3.60703 553.725 3.79688 548.438 6.32812C546.131 7.4039 543.938 8.47968 543.544 8.60623C543.206 8.79608 541.181 6.96094 539.1 4.49295L535.331 0H504H472.613L468.9 4.49295L465.131 8.92264L460.238 6.58124C457.537 5.31561 455.119 4.04999 454.838 3.73358C454.556 3.41718 454.725 2.59451 455.231 1.64529L456.131 0.126556H432H407.869L408.769 1.64529C409.894 3.60703 409.725 3.79688 404.437 6.32812C402.131 7.4039 399.937 8.47968 399.544 8.60623C399.206 8.79608 397.181 6.96094 395.1 4.49295L391.331 0H360H328.613L324.9 4.49295L321.131 8.92264L316.238 6.58124C313.537 5.31561 311.119 4.04999 310.838 3.73358C310.556 3.41718 310.725 2.59451 311.231 1.64529L312.131 0.126556H288H263.869L264.769 1.64529C265.894 3.60703 265.725 3.79688 260.437 6.32812C258.131 7.4039 255.937 8.47968 255.544 8.60623C255.206 8.79608 253.181 6.96094 251.1 4.49295L247.331 0H216H184.612L180.9 4.49295L177.131 8.92264L172.237 6.58124C169.537 5.31561 167.119 4.04999 166.837 3.73358C166.556 3.41718 166.725 2.59451 167.231 1.64529L168.131 0.126556H144H119.869L120.769 1.64529C121.894 3.60703 121.725 3.79688 116.437 6.32812C114.131 7.4039 111.937 8.47968 111.544 8.60623C111.206 8.79608 109.181 6.96094 107.1 4.49295L103.331 0H72H40.6125L36.9 4.49295L33.1312 8.92264L28.2375 6.58124C25.5375 5.31561 23.1187 4.04999 22.8375 3.73358C22.5562 3.41718 22.725 2.53125 23.2875 1.64529L24.1875 0L12.0937 0.0632629L-1.07279e-05 0.18985V7.0242ZM83.25 2.46796C88.1437 4.36639 94.275 8.73282 97.4812 12.593C98.9437 14.3648 100.125 16.0102 100.125 16.2633C100.125 16.7062 96.3 20.6297 92.9812 23.6672C91.6312 24.8062 91.6312 24.8062 88.7062 21.7055C82.9687 15.6938 78.1312 13.6055 70.5937 14.0484C64.8562 14.3648 59.85 16.8328 55.4062 21.5156C51.9187 25.2492 52.4812 25.3758 47.025 19.807C43.3125 16.1367 43.3125 15.9469 47.3625 11.6437C51.4125 7.21405 57.375 3.48047 63.2812 1.58203C67.6125 0.18985 78.5812 0.696075 83.25 2.46796ZM227.25 2.46796C232.144 4.36639 238.275 8.73282 241.481 12.593C242.944 14.3648 244.125 16.0102 244.125 16.2633C244.125 16.7062 240.3 20.6297 236.981 23.6672C235.631 24.8062 235.631 24.8062 232.706 21.7055C226.969 15.6938 222.131 13.6055 214.594 14.0484C208.856 14.3648 203.85 16.8328 199.406 21.5156C195.919 25.2492 196.481 25.3758 191.025 19.807C187.312 16.1367 187.312 15.9469 191.362 11.6437C195.412 7.21405 201.375 3.48047 207.281 1.58203C211.612 0.18985 222.581 0.696075 227.25 2.46796ZM371.25 2.46796C376.144 4.36639 382.275 8.73282 385.481 12.593C386.944 14.3648 388.125 16.0102 388.125 16.2633C388.125 16.7062 384.3 20.6297 380.981 23.6672C379.631 24.8062 379.631 24.8062 376.706 21.7055C370.969 15.6938 366.131 13.6055 358.594 14.0484C352.856 14.3648 347.85 16.8328 343.406 21.5156C339.919 25.2492 340.481 25.3758 335.025 19.807C331.312 16.1367 331.312 15.9469 335.363 11.6437C339.412 7.21405 345.375 3.48047 351.281 1.58203C355.613 0.18985 366.581 0.696075 371.25 2.46796ZM515.25 2.46796C520.144 4.36639 526.275 8.73282 529.481 12.593C530.944 14.3648 532.125 16.0102 532.125 16.2633C532.125 16.7062 528.3 20.6297 524.981 23.6672C523.631 24.8062 523.631 24.8062 520.706 21.7055C514.969 15.6938 510.131 13.6055 502.594 14.0484C496.856 14.3648 491.85 16.8328 487.406 21.5156C483.919 25.2492 484.481 25.3758 479.025 19.807C475.313 16.1367 475.313 15.9469 479.363 11.6437C483.413 7.21405 489.375 3.48047 495.281 1.58203C499.613 0.18985 510.581 0.696075 515.25 2.46796ZM659.25 2.46796C661.275 3.29062 664.425 4.93594 666.281 6.20157C669.881 8.60623 676.125 14.9344 676.125 16.0734C676.125 16.7062 672.75 20.25 668.981 23.6672C667.631 24.8062 667.631 24.8062 664.706 21.7055C658.969 15.6938 654.131 13.6055 646.594 14.0484C640.856 14.3648 635.85 16.8328 631.406 21.5156C627.919 25.2492 628.481 25.3758 623.025 19.807C619.313 16.1367 619.313 15.9469 623.363 11.6437C627.413 7.21405 633.375 3.48047 639.281 1.58203C643.613 0.18985 654.581 0.696075 659.25 2.46796ZM152.775 14.618C161.437 15.9469 170.212 19.9336 178.087 26.0086C183.825 30.5016 193.837 42.2086 193.331 43.9172C193.219 44.2336 190.8 45.6258 187.987 46.9547L182.812 49.3594L179.044 44.8664C170.606 34.8047 160.706 29.2359 148.556 27.7172C133.931 25.9453 119.7 32.0836 108.956 44.9297L105.131 49.4227L100.012 46.9547C97.1437 45.6258 94.725 44.1703 94.6687 43.8539C94.3875 43.0312 99.2812 36.3867 103.162 32.2734C116.381 18.1617 134.437 11.707 152.775 14.618ZM296.775 14.618C305.437 15.9469 314.213 19.9336 322.088 26.0086C327.825 30.5016 337.838 42.2086 337.331 43.9172C337.219 44.2336 334.8 45.6258 331.988 46.9547L326.812 49.3594L323.044 44.8664C312.244 32.0203 296.887 25.5656 282.544 27.7805C271.181 29.5523 262.631 34.2984 254.306 43.5375L248.962 49.3594L243.9 46.9547C241.144 45.5625 238.725 44.1703 238.669 43.8539C238.387 43.0312 243.281 36.3867 247.162 32.2734C260.381 18.1617 278.437 11.707 296.775 14.618ZM440.775 14.618C449.437 15.9469 458.213 19.9336 466.088 26.0086C471.825 30.5016 481.838 42.2086 481.331 43.9172C481.219 44.2336 478.8 45.6258 475.988 46.9547L470.813 49.3594L467.044 44.8664C456.244 32.0203 440.887 25.5656 426.544 27.7805C415.181 29.5523 406.631 34.2984 398.306 43.5375L392.963 49.3594L387.9 46.9547C385.144 45.5625 382.725 44.1703 382.669 43.8539C382.387 43.0312 387.281 36.3867 391.162 32.2734C404.381 18.1617 422.437 11.707 440.775 14.618ZM584.775 14.618C593.438 15.9469 602.213 19.9336 610.088 26.0086C615.825 30.5016 625.838 42.2086 625.331 43.9172C625.219 44.2336 622.8 45.6258 619.988 46.9547L614.813 49.3594L611.044 44.8664C600.244 32.0203 584.888 25.5656 570.544 27.7805C559.181 29.5523 550.631 34.2984 542.306 43.5375L536.963 49.3594L531.9 46.9547C529.144 45.5625 526.725 44.1703 526.669 43.8539C526.388 43.0312 531.281 36.3867 535.163 32.2734C548.381 18.1617 566.438 11.707 584.775 14.618ZM77.2312 28.8563C79.8187 30.3117 80.9437 31.6406 82.2375 34.425C83.3062 36.8297 83.3625 37.0828 82.4625 38.8547L81.5625 40.8164H72H62.4375L61.5375 38.8547C60.6375 36.9562 60.6375 36.7664 61.9312 34.1719C64.9687 28.0336 71.6625 25.6922 77.2312 28.8563ZM221.231 28.8563C223.819 30.3117 224.944 31.6406 226.237 34.425C227.306 36.8297 227.362 37.0828 226.462 38.8547L225.562 40.8164H216H206.437L205.537 38.8547C204.637 36.9562 204.637 36.7664 205.931 34.1719C208.969 28.0336 215.662 25.6922 221.231 28.8563ZM365.231 28.8563C367.819 30.3117 368.944 31.6406 370.238 34.425C371.306 36.8297 371.363 37.0828 370.463 38.8547L369.562 40.8164H360H350.437L349.537 38.8547C348.637 36.9562 348.637 36.7664 349.931 34.1719C352.969 28.0336 359.662 25.6922 365.231 28.8563ZM509.231 28.8563C511.819 30.3117 512.944 31.6406 514.238 34.425C515.306 36.8297 515.363 37.0828 514.463 38.8547L513.563 40.8164H504H494.438L493.538 38.8547C492.638 36.9562 492.638 36.7664 493.931 34.1719C496.969 28.0336 503.663 25.6922 509.231 28.8563ZM653.231 28.8563C655.819 30.3117 656.944 31.6406 658.238 34.425C659.306 36.8297 659.363 37.0828 658.463 38.8547L657.563 40.8164H648H638.438L637.538 38.8547C636.638 36.9562 636.638 36.7664 637.931 34.1719C640.969 28.0336 647.663 25.6922 653.231 28.8563ZM151.312 41.8922C155.531 42.7781 159.075 44.4234 163.35 47.4609C166.669 49.8023 172.125 55.6242 172.125 56.7633C172.125 57.2063 168.3 61.1297 164.981 64.1672C163.631 65.3062 163.631 65.3062 160.594 62.0789C155.137 56.257 147.487 53.3461 140.794 54.5484C136.181 55.3711 131.006 58.282 127.406 62.0789C124.369 65.3062 124.369 65.3062 123.019 64.1672C119.306 60.8133 115.875 57.2063 115.875 56.6367C115.875 55.4977 121.612 49.6125 125.269 46.9547C129.094 44.2336 134.606 42.0187 139.781 41.1961C143.325 40.6266 146.194 40.8164 151.312 41.8922ZM295.312 41.8922C299.531 42.7781 303.075 44.4234 307.35 47.4609C310.669 49.8023 316.125 55.6242 316.125 56.7633C316.125 57.2063 312.3 61.1297 308.981 64.1672C307.631 65.3062 307.631 65.3062 304.594 62.0789C299.137 56.257 291.488 53.3461 284.794 54.5484C280.181 55.3711 275.006 58.282 271.406 62.0789C268.369 65.3062 268.369 65.3062 267.019 64.1672C263.306 60.8133 259.875 57.2063 259.875 56.6367C259.875 55.4977 265.613 49.6125 269.269 46.9547C273.094 44.2336 278.606 42.0187 283.781 41.1961C287.325 40.6266 290.194 40.8164 295.312 41.8922ZM439.312 41.8922C443.531 42.7781 447.075 44.4234 451.35 47.4609C454.669 49.8023 460.125 55.6242 460.125 56.7633C460.125 57.2063 456.3 61.1297 452.981 64.1672C451.631 65.3062 451.631 65.3062 448.594 62.0789C444.994 58.282 439.819 55.3711 435.262 54.5484C428.512 53.3461 420.863 56.257 415.406 62.0789C412.369 65.3062 412.369 65.3062 411.019 64.1672C407.306 60.8133 403.875 57.2063 403.875 56.6367C403.875 55.4977 409.613 49.6125 413.269 46.9547C417.094 44.2336 422.606 42.0187 427.781 41.1961C431.325 40.6266 434.194 40.8164 439.312 41.8922ZM583.313 41.8922C587.531 42.7781 591.075 44.4234 595.35 47.4609C598.669 49.8023 604.125 55.6242 604.125 56.7633C604.125 57.2063 600.3 61.1297 596.981 64.1672C595.631 65.3062 595.631 65.3062 592.594 62.0789C587.138 56.257 579.488 53.3461 572.794 54.5484C568.181 55.3711 563.006 58.282 559.406 62.0789C556.369 65.3062 556.369 65.3062 555.019 64.1672C551.306 60.8133 547.875 57.2063 547.875 56.6367C547.875 55.4977 553.613 49.6125 557.269 46.9547C561.094 44.2336 566.606 42.0187 571.781 41.1961C575.325 40.6266 578.194 40.8164 583.313 41.8922ZM87.1875 56.6367C97.4812 59.7375 105.356 64.8633 113.4 73.5961C119.081 79.6711 122.006 83.9109 121.162 84.7336C120.881 85.05 118.744 86.1891 116.437 87.3281C114.131 88.4039 111.937 89.4797 111.544 89.6063C111.206 89.7961 109.069 87.7711 106.762 85.1133C97.2562 73.8492 85.4437 68.0906 72 68.0906C58.5562 68.0906 46.6875 73.8492 37.2375 85.05L33.1312 89.9227L28.2375 87.5813C25.5375 86.3156 23.1187 85.05 22.8375 84.7336C21.5437 83.468 30.7125 72.2039 37.35 66.9516C45.675 60.3703 53.0437 57.0797 64.6875 54.8016C65.475 54.6117 69.6375 54.6117 73.9687 54.7383C80.1562 54.9281 83.025 55.3711 87.1875 56.6367ZM231.187 56.6367C241.481 59.7375 249.356 64.8633 257.4 73.5961C263.081 79.6711 266.006 83.9109 265.162 84.7336C264.881 85.05 262.744 86.1891 260.437 87.3281C258.131 88.4039 255.937 89.4797 255.544 89.6063C255.206 89.7961 253.069 87.7711 250.762 85.1133C241.256 73.8492 229.444 68.0906 216 68.0906C202.556 68.0906 190.687 73.8492 181.237 85.05L177.131 89.9227L172.237 87.5813C169.537 86.3156 167.119 85.05 166.837 84.7336C165.544 83.468 174.712 72.2039 181.35 66.9516C189.675 60.3703 197.044 57.0797 208.687 54.8016C209.475 54.6117 213.637 54.6117 217.969 54.7383C224.156 54.9281 227.025 55.3711 231.187 56.6367ZM375.187 56.6367C385.481 59.7375 393.356 64.8633 401.4 73.5961C407.081 79.6711 410.006 83.9109 409.162 84.7336C408.881 85.05 406.744 86.1891 404.437 87.3281C402.131 88.4039 399.937 89.4797 399.544 89.6063C399.206 89.7961 397.069 87.7711 394.762 85.1133C385.256 73.8492 373.444 68.0906 360 68.0906C346.556 68.0906 334.687 73.8492 325.238 85.05L321.131 89.9227L316.238 87.5813C313.537 86.3156 311.119 85.05 310.838 84.7336C309.6 83.468 318.881 72.0774 325.406 66.9516C333.675 60.3703 341.1 57.0797 352.687 54.8016C353.475 54.6117 357.637 54.6117 361.969 54.7383C368.156 54.9281 371.025 55.3711 375.187 56.6367ZM519.188 56.6367C529.481 59.7375 537.356 64.8633 545.4 73.5961C551.081 79.6711 554.006 83.9109 553.163 84.7336C552.881 85.05 550.744 86.1891 548.438 87.3281C546.131 88.4039 543.938 89.4797 543.544 89.6063C543.206 89.7961 541.069 87.7711 538.763 85.1133C529.256 73.8492 517.444 68.0906 504 68.0906C490.556 68.0906 478.688 73.8492 469.238 85.05L465.131 89.9227L460.238 87.5813C457.537 86.3156 455.119 85.05 454.838 84.7336C453.6 83.468 462.881 72.0774 469.406 66.9516C477.675 60.3703 485.1 57.0797 496.688 54.8016C497.475 54.6117 501.638 54.6117 505.969 54.7383C512.156 54.9281 515.025 55.3711 519.188 56.6367ZM663.188 56.6367C673.481 59.7375 681.356 64.8633 689.4 73.5961C695.081 79.6711 698.006 83.9109 697.163 84.7336C696.881 85.05 694.744 86.1891 692.438 87.3281C690.131 88.4039 687.938 89.4797 687.6 89.6063C687.263 89.7961 685.125 87.7078 682.819 85.05C673.088 73.7859 661.444 68.0906 648 68.0906C634.556 68.0906 622.688 73.8492 613.238 85.05L609.131 89.9227L604.238 87.5813C601.538 86.3156 599.119 85.05 598.838 84.7336C597.6 83.468 606.881 72.0774 613.406 66.9516C621.675 60.3703 629.1 57.0797 640.688 54.8016C641.475 54.6117 645.638 54.6117 649.969 54.7383C656.156 54.9281 659.025 55.3711 663.188 56.6367ZM149.569 69.6094C151.987 70.9383 153.562 72.9633 154.631 75.8742C155.194 77.393 155.194 78.0258 154.519 79.4813L153.731 81.1898L144 81.2531L134.269 81.3164L133.425 79.3547C132.637 77.4563 132.694 77.1399 133.931 74.6086C137.081 68.3438 143.662 66.1922 149.569 69.6094ZM293.569 69.6094C295.988 70.9383 297.562 72.9633 298.631 75.8742C299.194 77.393 299.194 78.0258 298.519 79.4813L297.731 81.1898L288 81.2531L278.269 81.3164L277.425 79.3547C276.637 77.4563 276.694 77.1399 277.931 74.6086C281.081 68.3438 287.662 66.1922 293.569 69.6094ZM437.569 69.6094C439.988 70.9383 441.562 72.9633 442.631 75.8742C443.194 77.393 443.194 78.0258 442.519 79.4813L441.731 81.1898L432 81.2531L422.269 81.3164L421.425 79.3547C420.637 77.4563 420.694 77.1399 421.931 74.6086C425.081 68.3438 431.662 66.1922 437.569 69.6094ZM581.569 69.6094C583.988 70.9383 585.563 72.9633 586.631 75.8742C587.194 77.393 587.194 78.0258 586.519 79.4813L585.731 81.1898L576 81.2531L566.269 81.3164L565.425 79.3547C564.638 77.4563 564.694 77.1399 565.931 74.6086C569.081 68.3438 575.663 66.1922 581.569 69.6094ZM83.25 83.468C88.1437 85.3664 94.275 89.7328 97.4812 93.593C98.9437 95.3649 100.125 97.0102 100.125 97.2633C100.125 97.7063 96.3 101.63 92.9812 104.667C91.6312 105.806 91.6312 105.806 88.7062 102.705C82.9687 96.6938 78.1312 94.6055 70.5937 95.0485C64.8562 95.3649 59.85 97.8328 55.4062 102.516C51.9187 106.249 52.4812 106.376 47.025 100.807C43.3125 97.1367 43.3125 96.9469 47.3625 92.6438C51.4125 88.2141 57.375 84.4805 63.2812 82.582C67.6125 81.1898 78.5812 81.6961 83.25 83.468ZM227.25 83.468C232.144 85.3664 238.275 89.7328 241.481 93.593C242.944 95.3649 244.125 97.0102 244.125 97.2633C244.125 97.7063 240.3 101.63 236.981 104.667C235.631 105.806 235.631 105.806 232.706 102.705C226.969 96.6938 222.131 94.6055 214.594 95.0485C208.856 95.3649 203.85 97.8328 199.406 102.516C195.919 106.249 196.481 106.376 191.025 100.807C187.312 97.1367 187.312 96.9469 191.362 92.6438C195.412 88.2141 201.375 84.4805 207.281 82.582C211.612 81.1898 222.581 81.6961 227.25 83.468ZM371.25 83.468C376.144 85.3664 382.275 89.7328 385.481 93.593C386.944 95.3649 388.125 97.0102 388.125 97.2633C388.125 97.7063 384.3 101.63 380.981 104.667C379.631 105.806 379.631 105.806 376.706 102.705C370.969 96.6938 366.131 94.6055 358.594 95.0485C352.856 95.3649 347.85 97.8328 343.406 102.516C339.919 106.249 340.481 106.376 335.025 100.807C331.312 97.1367 331.312 96.9469 335.363 92.6438C339.412 88.2141 345.375 84.4805 351.281 82.582C355.613 81.1898 366.581 81.6961 371.25 83.468ZM515.25 83.468C520.144 85.3664 526.275 89.7328 529.481 93.593C530.944 95.3649 532.125 97.0102 532.125 97.2633C532.125 97.7063 528.3 101.63 524.981 104.667C523.631 105.806 523.631 105.806 520.706 102.705C514.969 96.6938 510.131 94.6055 502.594 95.0485C496.856 95.3649 491.85 97.8328 487.406 102.516C483.919 106.249 484.481 106.376 479.025 100.807C475.313 97.1367 475.313 96.9469 479.363 92.6438C483.413 88.2141 489.375 84.4805 495.281 82.582C499.613 81.1898 510.581 81.6961 515.25 83.468ZM659.25 83.468C661.275 84.2906 664.425 85.9359 666.281 87.2016C669.881 89.6063 676.125 95.9344 676.125 97.0735C676.125 97.7063 672.75 101.25 668.981 104.667C667.631 105.806 667.631 105.806 664.706 102.705C658.969 96.6938 654.131 94.6055 646.594 95.0485C640.856 95.3649 635.85 97.8328 631.406 102.516C627.919 106.249 628.481 106.376 623.025 100.807C619.313 97.1367 619.313 96.9469 623.363 92.6438C627.413 88.2141 633.375 84.4805 639.281 82.582C643.613 81.1898 654.581 81.6961 659.25 83.468ZM152.775 95.618C161.437 96.9469 170.212 100.934 178.087 107.009C183.825 111.502 193.837 123.209 193.331 124.917C193.219 125.234 190.8 126.626 187.987 127.955L182.812 130.359L179.044 125.866C170.606 115.805 160.706 110.236 148.556 108.717C133.931 106.945 119.7 113.084 108.956 125.93L105.131 130.423L100.012 127.955C97.1437 126.626 94.725 125.17 94.6687 124.854C94.3875 124.031 99.2812 117.387 103.162 113.273C116.381 99.1617 134.437 92.707 152.775 95.618ZM296.775 95.618C305.437 96.9469 314.213 100.934 322.088 107.009C327.825 111.502 337.838 123.209 337.331 124.917C337.219 125.234 334.8 126.626 331.988 127.955L326.812 130.359L323.044 125.866C312.244 113.02 296.887 106.566 282.544 108.78C271.181 110.552 262.631 115.298 254.306 124.538L248.962 130.359L243.9 127.955C241.144 126.562 238.725 125.17 238.669 124.854C238.387 124.031 243.281 117.387 247.162 113.273C260.381 99.1617 278.437 92.707 296.775 95.618ZM440.775 95.618C449.437 96.9469 458.213 100.934 466.088 107.009C471.825 111.502 481.838 123.209 481.331 124.917C481.219 125.234 478.8 126.626 475.988 127.955L470.813 130.359L467.044 125.866C456.244 113.02 440.887 106.566 426.544 108.78C415.181 110.552 406.631 115.298 398.306 124.538L392.963 130.359L387.9 127.955C385.144 126.562 382.725 125.17 382.669 124.854C382.387 124.031 387.281 117.387 391.162 113.273C404.381 99.1617 422.437 92.707 440.775 95.618ZM584.775 95.618C593.438 96.9469 602.213 100.934 610.088 107.009C615.825 111.502 625.838 123.209 625.331 124.917C625.219 125.234 622.8 126.626 619.988 127.955L614.813 130.359L611.044 125.866C600.244 113.02 584.888 106.566 570.544 108.78C559.181 110.552 550.631 115.298 542.306 124.538L536.963 130.359L531.9 127.955C529.144 126.562 526.725 125.17 526.669 124.854C526.388 124.031 531.281 117.387 535.163 113.273C548.381 99.1617 566.438 92.707 584.775 95.618ZM77.2312 109.856C79.8187 111.312 80.9437 112.641 82.2375 115.425C83.3062 117.83 83.3625 118.083 82.4625 119.855L81.5625 121.816H72H62.4375L61.5375 119.855C60.6375 117.956 60.6375 117.766 61.9312 115.172C64.9687 109.034 71.6625 106.692 77.2312 109.856ZM221.231 109.856C223.819 111.312 224.944 112.641 226.237 115.425C227.306 117.83 227.362 118.083 226.462 119.855L225.562 121.816H216H206.437L205.537 119.855C204.637 117.956 204.637 117.766 205.931 115.172C208.969 109.034 215.662 106.692 221.231 109.856ZM365.231 109.856C367.819 111.312 368.944 112.641 370.238 115.425C371.306 117.83 371.363 118.083 370.463 119.855L369.562 121.816H360H350.437L349.537 119.855C348.637 117.956 348.637 117.766 349.931 115.172C352.969 109.034 359.662 106.692 365.231 109.856ZM509.231 109.856C511.819 111.312 512.944 112.641 514.238 115.425C515.306 117.83 515.363 118.083 514.463 119.855L513.563 121.816H504H494.438L493.538 119.855C492.638 117.956 492.638 117.766 493.931 115.172C496.969 109.034 503.663 106.692 509.231 109.856ZM653.231 109.856C655.819 111.312 656.944 112.641 658.238 115.425C659.306 117.83 659.363 118.083 658.463 119.855L657.563 121.816H648H638.438L637.538 119.855C636.638 117.956 636.638 117.766 637.931 115.172C640.969 109.034 647.663 106.692 653.231 109.856ZM151.312 122.892C155.531 123.778 159.075 125.423 163.35 128.461C166.669 130.802 172.125 136.624 172.125 137.763C172.125 138.206 168.3 142.13 164.981 145.167C163.631 146.306 163.631 146.306 160.594 143.079C150.975 132.827 137.025 132.827 127.406 143.079C124.369 146.306 124.369 146.306 123.019 145.167C119.306 141.813 115.875 138.206 115.875 137.637C115.875 136.498 121.612 130.613 125.269 127.955C129.094 125.234 134.606 123.019 139.781 122.196C143.325 121.627 146.194 121.816 151.312 122.892ZM295.312 122.892C299.531 123.778 303.075 125.423 307.35 128.461C310.669 130.802 316.125 136.624 316.125 137.763C316.125 138.206 312.3 142.13 308.981 145.167C307.631 146.306 307.631 146.306 304.594 143.079C294.975 132.827 281.025 132.827 271.406 143.079C268.369 146.306 268.369 146.306 267.019 145.167C263.306 141.813 259.875 138.206 259.875 137.637C259.875 136.498 265.613 130.613 269.269 127.955C273.094 125.234 278.606 123.019 283.781 122.196C287.325 121.627 290.194 121.816 295.312 122.892ZM439.312 122.892C443.531 123.778 447.075 125.423 451.35 128.461C454.669 130.802 460.125 136.624 460.125 137.763C460.125 138.206 456.3 142.13 452.981 145.167C451.631 146.306 451.631 146.306 448.594 143.079C438.975 132.827 425.025 132.827 415.406 143.079C412.369 146.306 412.369 146.306 411.019 145.167C407.306 141.813 403.875 138.206 403.875 137.637C403.875 136.498 409.613 130.613 413.269 127.955C417.094 125.234 422.606 123.019 427.781 122.196C431.325 121.627 434.194 121.816 439.312 122.892ZM583.313 122.892C587.531 123.778 591.075 125.423 595.35 128.461C598.669 130.802 604.125 136.624 604.125 137.763C604.125 138.206 600.3 142.13 596.981 145.167C595.631 146.306 595.631 146.306 592.594 143.079C582.975 132.827 569.025 132.827 559.406 143.079C556.369 146.306 556.369 146.306 555.019 145.167C551.306 141.813 547.875 138.206 547.875 137.637C547.875 136.498 553.613 130.613 557.269 127.955C561.094 125.234 566.606 123.019 571.781 122.196C575.325 121.627 578.194 121.816 583.313 122.892ZM87.1875 137.637C97.4812 140.738 105.356 145.863 113.4 154.596C119.081 160.671 122.006 164.911 121.162 165.734C120.881 166.05 118.744 167.189 116.437 168.328C114.131 169.404 111.937 170.48 111.544 170.606C111.206 170.796 109.069 168.771 106.762 166.113C97.2562 154.849 85.4437 149.091 72 149.091C58.5562 149.091 46.6875 154.849 37.2375 166.05L33.1312 170.923L28.2375 168.581C25.5375 167.316 23.1187 166.05 22.8375 165.734C21.5437 164.468 30.7125 153.204 37.35 147.952C45.675 141.37 53.0437 138.08 64.6875 135.802C65.475 135.612 69.6375 135.612 73.9687 135.738C80.1562 135.928 83.025 136.371 87.1875 137.637ZM231.187 137.637C241.481 140.738 249.356 145.863 257.4 154.596C263.081 160.671 266.006 164.911 265.162 165.734C264.881 166.05 262.744 167.189 260.437 168.328C258.131 169.404 255.937 170.48 255.544 170.606C255.206 170.796 253.069 168.771 250.762 166.113C241.256 154.849 229.444 149.091 216 149.091C202.556 149.091 190.687 154.849 181.237 166.05L177.131 170.923L172.237 168.581C169.537 167.316 167.119 166.05 166.837 165.734C165.544 164.468 174.712 153.204 181.35 147.952C189.675 141.37 197.044 138.08 208.687 135.802C209.475 135.612 213.637 135.612 217.969 135.738C224.156 135.928 227.025 136.371 231.187 137.637ZM375.187 137.637C385.481 140.738 393.356 145.863 401.4 154.596C407.081 160.671 410.006 164.911 409.162 165.734C408.881 166.05 406.744 167.189 404.437 168.328C402.131 169.404 399.937 170.48 399.544 170.606C399.206 170.796 397.069 168.771 394.762 166.113C385.256 154.849 373.444 149.091 360 149.091C346.556 149.091 334.687 154.849 325.238 166.05L321.131 170.923L316.238 168.581C313.537 167.316 311.119 166.05 310.838 165.734C309.6 164.468 318.881 153.077 325.406 147.952C333.675 141.37 341.1 138.08 352.687 135.802C353.475 135.612 357.637 135.612 361.969 135.738C368.156 135.928 371.025 136.371 375.187 137.637ZM519.188 137.637C529.481 140.738 537.356 145.863 545.4 154.596C551.081 160.671 554.006 164.911 553.163 165.734C552.881 166.05 550.744 167.189 548.438 168.328C546.131 169.404 543.938 170.48 543.544 170.606C543.206 170.796 541.069 168.771 538.763 166.113C529.256 154.849 517.444 149.091 504 149.091C490.556 149.091 478.688 154.849 469.238 166.05L465.131 170.923L460.238 168.581C457.537 167.316 455.119 166.05 454.838 165.734C453.6 164.468 462.881 153.077 469.406 147.952C477.675 141.37 485.1 138.08 496.688 135.802C497.475 135.612 501.638 135.612 505.969 135.738C512.156 135.928 515.025 136.371 519.188 137.637ZM663.188 137.637C673.481 140.738 681.356 145.863 689.4 154.596C695.081 160.671 698.006 164.911 697.163 165.734C696.881 166.05 694.744 167.189 692.438 168.328C690.131 169.404 687.938 170.48 687.6 170.606C687.263 170.796 685.125 168.708 682.819 166.05C673.088 154.786 661.444 149.091 648 149.091C634.556 149.091 622.688 154.849 613.238 166.05L609.131 170.923L604.238 168.581C601.538 167.316 599.119 166.05 598.838 165.734C597.6 164.468 606.881 153.077 613.406 147.952C621.675 141.37 629.1 138.08 640.688 135.802C641.475 135.612 645.638 135.612 649.969 135.738C656.156 135.928 659.025 136.371 663.188 137.637ZM149.569 150.609C151.987 151.938 153.562 153.963 154.631 156.874C155.194 158.393 155.194 159.026 154.519 160.481L153.731 162.19L144 162.253L134.269 162.316L133.425 160.355C132.637 158.456 132.694 158.14 133.931 155.609C137.081 149.344 143.662 147.192 149.569 150.609ZM293.569 150.609C295.988 151.938 297.562 153.963 298.631 156.874C299.194 158.393 299.194 159.026 298.519 160.481L297.731 162.19L288 162.253L278.269 162.316L277.425 160.355C276.637 158.456 276.694 158.14 277.931 155.609C281.081 149.344 287.662 147.192 293.569 150.609ZM437.569 150.609C439.988 151.938 441.562 153.963 442.631 156.874C443.194 158.393 443.194 159.026 442.519 160.481L441.731 162.19L432 162.253L422.269 162.316L421.425 160.355C420.637 158.456 420.694 158.14 421.931 155.609C425.081 149.344 431.662 147.192 437.569 150.609ZM581.569 150.609C583.988 151.938 585.563 153.963 586.631 156.874C587.194 158.393 587.194 159.026 586.519 160.481L585.731 162.19L576 162.253L566.269 162.316L565.425 160.355C564.638 158.456 564.694 158.14 565.931 155.609C569.081 149.344 575.663 147.192 581.569 150.609ZM83.25 164.468C88.1437 166.366 94.275 170.733 97.4812 174.593C98.9437 176.365 100.125 178.01 100.125 178.263C100.125 178.706 96.3 182.63 92.9812 185.667C91.6312 186.806 91.6312 186.806 88.7062 183.705C82.9687 177.694 78.1312 175.605 70.5937 176.048C64.8562 176.365 59.85 178.833 55.4062 183.516C51.9187 187.249 52.4812 187.376 47.025 181.807C43.3125 178.137 43.3125 177.947 47.3625 173.644C51.4125 169.214 57.375 165.48 63.2812 163.582C67.6125 162.19 78.5812 162.696 83.25 164.468ZM227.25 164.468C232.144 166.366 238.275 170.733 241.481 174.593C242.944 176.365 244.125 178.01 244.125 178.263C244.125 178.706 240.3 182.63 236.981 185.667C235.631 186.806 235.631 186.806 232.706 183.705C226.969 177.694 222.131 175.605 214.594 176.048C208.856 176.365 203.85 178.833 199.406 183.516C195.919 187.249 196.481 187.376 191.025 181.807C187.312 178.137 187.312 177.947 191.362 173.644C195.412 169.214 201.375 165.48 207.281 163.582C211.612 162.19 222.581 162.696 227.25 164.468ZM371.25 164.468C376.144 166.366 382.275 170.733 385.481 174.593C386.944 176.365 388.125 178.01 388.125 178.263C388.125 178.706 384.3 182.63 380.981 185.667C379.631 186.806 379.631 186.806 376.706 183.705C370.969 177.694 366.131 175.605 358.594 176.048C352.856 176.365 347.85 178.833 343.406 183.516C339.919 187.249 340.481 187.376 335.025 181.807C331.312 178.137 331.312 177.947 335.363 173.644C339.412 169.214 345.375 165.48 351.281 163.582C355.613 162.19 366.581 162.696 371.25 164.468ZM515.25 164.468C520.144 166.366 526.275 170.733 529.481 174.593C530.944 176.365 532.125 178.01 532.125 178.263C532.125 178.706 528.3 182.63 524.981 185.667C523.631 186.806 523.631 186.806 520.706 183.705C514.969 177.694 510.131 175.605 502.594 176.048C496.856 176.365 491.85 178.833 487.406 183.516C483.919 187.249 484.481 187.376 479.025 181.807C475.313 178.137 475.313 177.947 479.363 173.644C483.413 169.214 489.375 165.48 495.281 163.582C499.613 162.19 510.581 162.696 515.25 164.468ZM659.25 164.468C661.275 165.291 664.425 166.936 666.281 168.202C669.881 170.606 676.125 176.934 676.125 178.073C676.125 178.706 672.75 182.25 668.981 185.667C667.631 186.806 667.631 186.806 664.706 183.705C658.969 177.694 654.131 175.605 646.594 176.048C640.856 176.365 635.85 178.833 631.406 183.516C627.919 187.249 628.481 187.376 623.025 181.807C619.313 178.137 619.313 177.947 623.363 173.644C627.413 169.214 633.375 165.48 639.281 163.582C643.613 162.19 654.581 162.696 659.25 164.468ZM152.775 176.618C161.437 177.947 170.212 181.934 178.087 188.009C183.825 192.502 193.837 204.209 193.331 205.917C193.219 206.234 190.8 207.626 187.987 208.955L182.812 211.359L179.044 206.866C170.606 196.805 160.706 191.236 148.556 189.717C133.931 187.945 119.7 194.084 108.956 206.93L105.131 211.423L100.012 208.955C97.1437 207.626 94.725 206.17 94.6687 205.854C94.3875 205.031 99.2812 198.387 103.162 194.273C116.381 180.162 134.437 173.707 152.775 176.618ZM296.775 176.618C305.437 177.947 314.213 181.934 322.088 188.009C327.825 192.502 337.838 204.209 337.331 205.917C337.219 206.234 334.8 207.626 331.988 208.955L326.812 211.359L323.044 206.866C312.244 194.02 296.887 187.566 282.544 189.78C271.181 191.552 262.631 196.298 254.306 205.538L248.962 211.359L243.9 208.955C241.144 207.563 238.725 206.17 238.669 205.854C238.387 205.031 243.281 198.387 247.162 194.273C260.381 180.162 278.437 173.707 296.775 176.618ZM440.775 176.618C449.437 177.947 458.213 181.934 466.088 188.009C471.825 192.502 481.838 204.209 481.331 205.917C481.219 206.234 478.8 207.626 475.988 208.955L470.813 211.359L467.044 206.866C456.244 194.02 440.887 187.566 426.544 189.78C415.181 191.552 406.631 196.298 398.306 205.538L392.963 211.359L387.9 208.955C385.144 207.563 382.725 206.17 382.669 205.854C382.387 205.031 387.281 198.387 391.162 194.273C404.381 180.162 422.437 173.707 440.775 176.618ZM584.775 176.618C593.438 177.947 602.213 181.934 610.088 188.009C615.825 192.502 625.838 204.209 625.331 205.917C625.219 206.234 622.8 207.626 619.988 208.955L614.813 211.359L611.044 206.866C600.244 194.02 584.888 187.566 570.544 189.78C559.181 191.552 550.631 196.298 542.306 205.538L536.963 211.359L531.9 208.955C529.144 207.563 526.725 206.17 526.669 205.854C526.388 205.031 531.281 198.387 535.163 194.273C548.381 180.162 566.438 173.707 584.775 176.618ZM77.2312 190.856C79.8187 192.312 80.9437 193.641 82.2375 196.425C83.3062 198.83 83.3625 199.083 82.4625 200.855L81.5625 202.816H72H62.4375L61.5375 200.855C60.6375 198.956 60.6375 198.766 61.9312 196.172C64.9687 190.034 71.6625 187.692 77.2312 190.856ZM221.231 190.856C223.819 192.312 224.944 193.641 226.237 196.425C227.306 198.83 227.362 199.083 226.462 200.855L225.562 202.816H216H206.437L205.537 200.855C204.637 198.956 204.637 198.766 205.931 196.172C208.969 190.034 215.662 187.692 221.231 190.856ZM365.231 190.856C367.819 192.312 368.944 193.641 370.238 196.425C371.306 198.83 371.363 199.083 370.463 200.855L369.562 202.816H360H350.437L349.537 200.855C348.637 198.956 348.637 198.766 349.931 196.172C352.969 190.034 359.662 187.692 365.231 190.856ZM509.231 190.856C511.819 192.312 512.944 193.641 514.238 196.425C515.306 198.83 515.363 199.083 514.463 200.855L513.563 202.816H504H494.438L493.538 200.855C492.638 198.956 492.638 198.766 493.931 196.172C496.969 190.034 503.663 187.692 509.231 190.856ZM653.231 190.856C655.819 192.312 656.944 193.641 658.238 196.425C659.306 198.83 659.363 199.083 658.463 200.855L657.563 202.816H648H638.438L637.538 200.855C636.638 198.956 636.638 198.766 637.931 196.172C640.969 190.034 647.663 187.692 653.231 190.856ZM151.312 203.892C155.531 204.778 159.075 206.423 163.35 209.461C166.669 211.802 172.125 217.624 172.125 218.763C172.125 219.206 168.3 223.13 164.981 226.167C163.631 227.306 163.631 227.306 160.594 224.079C150.975 213.827 137.025 213.827 127.406 224.079C124.369 227.306 124.369 227.306 123.019 226.167C119.306 222.813 115.875 219.206 115.875 218.637C115.875 217.498 121.612 211.613 125.269 208.955C129.094 206.234 134.606 204.019 139.781 203.196C143.325 202.627 146.194 202.816 151.312 203.892ZM295.312 203.892C299.531 204.778 303.075 206.423 307.35 209.461C310.669 211.802 316.125 217.624 316.125 218.763C316.125 219.206 312.3 223.13 308.981 226.167C307.631 227.306 307.631 227.306 304.594 224.079C294.975 213.827 281.025 213.827 271.406 224.079C268.369 227.306 268.369 227.306 267.019 226.167C263.306 222.813 259.875 219.206 259.875 218.637C259.875 217.498 265.613 211.613 269.269 208.955C273.094 206.234 278.606 204.019 283.781 203.196C287.325 202.627 290.194 202.816 295.312 203.892ZM439.312 203.892C443.531 204.778 447.075 206.423 451.35 209.461C454.669 211.802 460.125 217.624 460.125 218.763C460.125 219.206 456.3 223.13 452.981 226.167C451.631 227.306 451.631 227.306 448.594 224.079C438.975 213.827 425.025 213.827 415.406 224.079C412.369 227.306 412.369 227.306 411.019 226.167C407.306 222.813 403.875 219.206 403.875 218.637C403.875 217.498 409.613 211.613 413.269 208.955C417.094 206.234 422.606 204.019 427.781 203.196C431.325 202.627 434.194 202.816 439.312 203.892ZM583.313 203.892C587.531 204.778 591.075 206.423 595.35 209.461C598.669 211.802 604.125 217.624 604.125 218.763C604.125 219.206 600.3 223.13 596.981 226.167C595.631 227.306 595.631 227.306 592.594 224.079C582.975 213.827 569.025 213.827 559.406 224.079C556.369 227.306 556.369 227.306 555.019 226.167C551.306 222.813 547.875 219.206 547.875 218.637C547.875 217.498 553.613 211.613 557.269 208.955C561.094 206.234 566.606 204.019 571.781 203.196C575.325 202.627 578.194 202.816 583.313 203.892ZM87.1875 218.637C97.4812 221.738 105.356 226.863 113.4 235.596C119.081 241.671 122.006 245.911 121.162 246.734C120.881 247.05 118.744 248.189 116.437 249.328C114.131 250.404 111.937 251.48 111.544 251.606C111.206 251.796 109.069 249.771 106.762 247.113C97.2562 235.849 85.4437 230.091 72 230.091C58.5562 230.091 46.6875 235.849 37.2375 247.05L33.1312 251.923L28.2375 249.581C25.5375 248.316 23.1187 247.05 22.8375 246.734C21.5437 245.468 30.7125 234.204 37.35 228.952C45.675 222.37 53.0437 219.08 64.6875 216.802C65.475 216.612 69.6375 216.612 73.9687 216.738C80.1562 216.928 83.025 217.371 87.1875 218.637ZM231.187 218.637C241.481 221.738 249.356 226.863 257.4 235.596C263.081 241.671 266.006 245.911 265.162 246.734C264.881 247.05 262.744 248.189 260.437 249.328C258.131 250.404 255.937 251.48 255.544 251.606C255.206 251.796 253.069 249.771 250.762 247.113C241.256 235.849 229.444 230.091 216 230.091C202.556 230.091 190.687 235.849 181.237 247.05L177.131 251.923L172.237 249.581C169.537 248.316 167.119 247.05 166.837 246.734C165.544 245.468 174.712 234.204 181.35 228.952C189.675 222.37 197.044 219.08 208.687 216.802C209.475 216.612 213.637 216.612 217.969 216.738C224.156 216.928 227.025 217.371 231.187 218.637ZM375.187 218.637C385.481 221.738 393.356 226.863 401.4 235.596C407.081 241.671 410.006 245.911 409.162 246.734C408.881 247.05 406.744 248.189 404.437 249.328C402.131 250.404 399.937 251.48 399.544 251.606C399.206 251.796 397.069 249.771 394.762 247.113C385.256 235.849 373.444 230.091 360 230.091C346.556 230.091 334.687 235.849 325.238 247.05L321.131 251.923L316.238 249.581C313.537 248.316 311.119 247.05 310.838 246.734C309.6 245.468 318.881 234.077 325.406 228.952C333.675 222.37 341.1 219.08 352.687 216.802C353.475 216.612 357.637 216.612 361.969 216.738C368.156 216.928 371.025 217.371 375.187 218.637ZM519.188 218.637C529.481 221.738 537.356 226.863 545.4 235.596C551.081 241.671 554.006 245.911 553.163 246.734C552.881 247.05 550.744 248.189 548.438 249.328C546.131 250.404 543.938 251.48 543.544 251.606C543.206 251.796 541.069 249.771 538.763 247.113C529.256 235.849 517.444 230.091 504 230.091C490.556 230.091 478.688 235.849 469.238 247.05L465.131 251.923L460.238 249.581C457.537 248.316 455.119 247.05 454.838 246.734C453.6 245.468 462.881 234.077 469.406 228.952C477.675 222.37 485.1 219.08 496.688 216.802C497.475 216.612 501.638 216.612 505.969 216.738C512.156 216.928 515.025 217.371 519.188 218.637ZM663.188 218.637C673.481 221.738 681.356 226.863 689.4 235.596C695.081 241.671 698.006 245.911 697.163 246.734C696.881 247.05 694.744 248.189 692.438 249.328C690.131 250.404 687.938 251.48 687.6 251.606C687.263 251.796 685.125 249.708 682.819 247.05C673.088 235.786 661.444 230.091 648 230.091C634.556 230.091 622.688 235.849 613.238 247.05L609.131 251.923L604.238 249.581C601.538 248.316 599.119 247.05 598.838 246.734C597.6 245.468 606.881 234.077 613.406 228.952C621.675 222.37 629.1 219.08 640.688 216.802C641.475 216.612 645.638 216.612 649.969 216.738C656.156 216.928 659.025 217.371 663.188 218.637ZM149.569 231.609C151.987 232.938 153.562 234.963 154.631 237.874C155.194 239.393 155.194 240.026 154.519 241.481L153.731 243.19L144 243.253L134.269 243.316L133.425 241.355C132.637 239.456 132.694 239.14 133.931 236.609C137.081 230.344 143.662 228.192 149.569 231.609ZM293.569 231.609C295.988 232.938 297.562 234.963 298.631 237.874C299.194 239.393 299.194 240.026 298.519 241.481L297.731 243.19L288 243.253L278.269 243.316L277.425 241.355C276.637 239.456 276.694 239.14 277.931 236.609C281.081 230.344 287.662 228.192 293.569 231.609ZM437.569 231.609C439.988 232.938 441.562 234.963 442.631 237.874C443.194 239.393 443.194 240.026 442.519 241.481L441.731 243.19L432 243.253L422.269 243.316L421.425 241.355C420.637 239.456 420.694 239.14 421.931 236.609C425.081 230.344 431.662 228.192 437.569 231.609ZM581.569 231.609C583.988 232.938 585.563 234.963 586.631 237.874C587.194 239.393 587.194 240.026 586.519 241.481L585.731 243.19L576 243.253L566.269 243.316L565.425 241.355C564.638 239.456 564.694 239.14 565.931 236.609C569.081 230.344 575.663 228.192 581.569 231.609ZM83.25 245.468C88.1437 247.366 94.275 251.733 97.4812 255.593C98.9437 257.365 100.125 259.01 100.125 259.263C100.125 259.706 96.3 263.63 92.9812 266.667C91.6312 267.806 91.6312 267.806 88.7062 264.706C82.9687 258.694 78.1312 256.605 70.5937 257.048C64.8562 257.365 59.85 259.833 55.4062 264.516C51.9187 268.249 52.4812 268.376 47.025 262.807C43.3125 259.137 43.3125 258.947 47.3625 254.644C51.4125 250.214 57.375 246.48 63.2812 244.582C67.6125 243.19 78.5812 243.696 83.25 245.468ZM227.25 245.468C232.144 247.366 238.275 251.733 241.481 255.593C242.944 257.365 244.125 259.01 244.125 259.263C244.125 259.706 240.3 263.63 236.981 266.667C235.631 267.806 235.631 267.806 232.706 264.706C226.969 258.694 222.131 256.605 214.594 257.048C208.856 257.365 203.85 259.833 199.406 264.516C195.919 268.249 196.481 268.376 191.025 262.807C187.312 259.137 187.312 258.947 191.362 254.644C195.412 250.214 201.375 246.48 207.281 244.582C211.612 243.19 222.581 243.696 227.25 245.468ZM371.25 245.468C376.144 247.366 382.275 251.733 385.481 255.593C386.944 257.365 388.125 259.01 388.125 259.263C388.125 259.706 384.3 263.63 380.981 266.667C379.631 267.806 379.631 267.806 376.706 264.706C370.969 258.694 366.131 256.605 358.594 257.048C352.856 257.365 347.85 259.833 343.406 264.516C339.919 268.249 340.481 268.376 335.025 262.807C331.312 259.137 331.312 258.947 335.363 254.644C339.412 250.214 345.375 246.48 351.281 244.582C355.613 243.19 366.581 243.696 371.25 245.468ZM515.25 245.468C520.144 247.366 526.275 251.733 529.481 255.593C530.944 257.365 532.125 259.01 532.125 259.263C532.125 259.706 528.3 263.63 524.981 266.667C523.631 267.806 523.631 267.806 520.706 264.706C514.969 258.694 510.131 256.605 502.594 257.048C496.856 257.365 491.85 259.833 487.406 264.516C483.919 268.249 484.481 268.376 479.025 262.807C475.313 259.137 475.313 258.947 479.363 254.644C483.413 250.214 489.375 246.48 495.281 244.582C499.613 243.19 510.581 243.696 515.25 245.468ZM659.25 245.468C661.275 246.291 664.425 247.936 666.281 249.202C669.881 251.606 676.125 257.934 676.125 259.073C676.125 259.706 672.75 263.25 668.981 266.667C667.631 267.806 667.631 267.806 664.706 264.706C658.969 258.694 654.131 256.605 646.594 257.048C640.856 257.365 635.85 259.833 631.406 264.516C627.919 268.249 628.481 268.376 623.025 262.807C619.313 259.137 619.313 258.947 623.363 254.644C627.413 250.214 633.375 246.48 639.281 244.582C643.613 243.19 654.581 243.696 659.25 245.468ZM152.775 257.618C161.437 258.947 170.212 262.934 178.087 269.009C183.825 273.502 193.837 285.209 193.331 286.917C193.219 287.234 190.8 288.626 187.987 289.955L182.812 292.359L179.044 287.866C170.606 277.805 160.706 272.236 148.556 270.717C133.931 268.945 119.7 275.084 108.956 287.93L105.131 292.423L100.012 289.955C97.1437 288.626 94.725 287.17 94.6687 286.854C94.3875 286.031 99.2812 279.387 103.162 275.273C116.381 261.162 134.437 254.707 152.775 257.618ZM296.775 257.618C305.437 258.947 314.213 262.934 322.088 269.009C327.825 273.502 337.838 285.209 337.331 286.917C337.219 287.234 334.8 288.626 331.988 289.955L326.812 292.359L323.044 287.866C312.244 275.02 296.887 268.566 282.544 270.781C271.181 272.552 262.631 277.298 254.306 286.538L248.962 292.359L243.9 289.955C241.144 288.563 238.725 287.17 238.669 286.854C238.387 286.031 243.281 279.387 247.162 275.273C260.381 261.162 278.437 254.707 296.775 257.618ZM440.775 257.618C449.437 258.947 458.213 262.934 466.088 269.009C471.825 273.502 481.838 285.209 481.331 286.917C481.219 287.234 478.8 288.626 475.988 289.955L470.813 292.359L467.044 287.866C456.244 275.02 440.887 268.566 426.544 270.781C415.181 272.552 406.631 277.298 398.306 286.538L392.963 292.359L387.9 289.955C385.144 288.563 382.725 287.17 382.669 286.854C382.387 286.031 387.281 279.387 391.162 275.273C404.381 261.162 422.437 254.707 440.775 257.618ZM584.775 257.618C593.438 258.947 602.213 262.934 610.088 269.009C615.825 273.502 625.838 285.209 625.331 286.917C625.219 287.234 622.8 288.626 619.988 289.955L614.813 292.359L611.044 287.866C600.244 275.02 584.888 268.566 570.544 270.781C559.181 272.552 550.631 277.298 542.306 286.538L536.963 292.359L531.9 289.955C529.144 288.563 526.725 287.17 526.669 286.854C526.388 286.031 531.281 279.387 535.163 275.273C548.381 261.162 566.438 254.707 584.775 257.618ZM77.2312 271.856C79.8187 273.312 80.9437 274.641 82.2375 277.425C83.3062 279.83 83.3625 280.083 82.4625 281.855L81.5625 283.816H72H62.4375L61.5375 281.855C60.6375 279.956 60.6375 279.766 61.9312 277.172C64.9687 271.034 71.6625 268.692 77.2312 271.856ZM221.231 271.856C223.819 273.312 224.944 274.641 226.237 277.425C227.306 279.83 227.362 280.083 226.462 281.855L225.562 283.816H216H206.437L205.537 281.855C204.637 279.956 204.637 279.766 205.931 277.172C208.969 271.034 215.662 268.692 221.231 271.856ZM365.231 271.856C367.819 273.312 368.944 274.641 370.238 277.425C371.306 279.83 371.363 280.083 370.463 281.855L369.562 283.816H360H350.437L349.537 281.855C348.637 279.956 348.637 279.766 349.931 277.172C352.969 271.034 359.662 268.692 365.231 271.856ZM509.231 271.856C511.819 273.312 512.944 274.641 514.238 277.425C515.306 279.83 515.363 280.083 514.463 281.855L513.563 283.816H504H494.438L493.538 281.855C492.638 279.956 492.638 279.766 493.931 277.172C496.969 271.034 503.663 268.692 509.231 271.856ZM653.231 271.856C655.819 273.312 656.944 274.641 658.238 277.425C659.306 279.83 659.363 280.083 658.463 281.855L657.563 283.816H648H638.438L637.538 281.855C636.638 279.956 636.638 279.766 637.931 277.172C640.969 271.034 647.663 268.692 653.231 271.856ZM151.312 284.892C155.531 285.778 159.075 287.423 163.35 290.461C166.669 292.802 172.125 298.624 172.125 299.763C172.125 300.206 168.3 304.13 164.981 307.167C163.631 308.306 163.631 308.306 160.594 305.079C156.994 301.282 151.819 298.371 147.262 297.548C140.512 296.346 132.862 299.257 127.406 305.079C124.369 308.306 124.369 308.306 123.019 307.167C119.306 303.813 115.875 300.206 115.875 299.637C115.875 298.498 121.612 292.613 125.269 289.955C129.094 287.234 134.606 285.019 139.781 284.196C143.325 283.627 146.194 283.816 151.312 284.892ZM295.312 284.892C299.531 285.778 303.075 287.423 307.35 290.461C310.669 292.802 316.125 298.624 316.125 299.763C316.125 300.206 312.3 304.13 308.981 307.167C307.631 308.306 307.631 308.306 304.594 305.079C299.137 299.257 291.488 296.346 284.794 297.548C280.181 298.371 275.006 301.282 271.406 305.079C268.369 308.306 268.369 308.306 267.019 307.167C263.306 303.813 259.875 300.206 259.875 299.637C259.875 298.498 265.613 292.613 269.269 289.955C273.094 287.234 278.606 285.019 283.781 284.196C287.325 283.627 290.194 283.816 295.312 284.892ZM439.312 284.892C443.531 285.778 447.075 287.423 451.35 290.461C454.669 292.802 460.125 298.624 460.125 299.763C460.125 300.206 456.3 304.13 452.981 307.167C451.631 308.306 451.631 308.306 448.594 305.079C444.994 301.282 439.819 298.371 435.262 297.548C428.512 296.346 420.863 299.257 415.406 305.079C412.369 308.306 412.369 308.306 411.019 307.167C407.306 303.813 403.875 300.206 403.875 299.637C403.875 298.498 409.613 292.613 413.269 289.955C417.094 287.234 422.606 285.019 427.781 284.196C431.325 283.627 434.194 283.816 439.312 284.892ZM583.313 284.892C587.531 285.778 591.075 287.423 595.35 290.461C598.669 292.802 604.125 298.624 604.125 299.763C604.125 300.206 600.3 304.13 596.981 307.167C595.631 308.306 595.631 308.306 592.594 305.079C587.138 299.257 579.488 296.346 572.794 297.548C568.181 298.371 563.006 301.282 559.406 305.079C556.369 308.306 556.369 308.306 555.019 307.167C551.306 303.813 547.875 300.206 547.875 299.637C547.875 298.498 553.613 292.613 557.269 289.955C561.094 287.234 566.606 285.019 571.781 284.196C575.325 283.627 578.194 283.816 583.313 284.892ZM87.1875 299.637C97.4812 302.738 105.356 307.863 113.4 316.596C119.081 322.671 122.006 326.911 121.162 327.734C120.881 328.05 118.744 329.189 116.437 330.328C114.131 331.404 111.937 332.48 111.544 332.606C111.206 332.796 109.069 330.771 106.762 328.113C97.2562 316.849 85.4437 311.091 72 311.091C58.5562 311.091 46.6875 316.849 37.2375 328.05L33.1312 332.923L28.2375 330.581C25.5375 329.316 23.1187 328.05 22.8375 327.734C21.5437 326.468 30.7125 315.204 37.35 309.952C45.675 303.37 53.0437 300.08 64.6875 297.802C65.475 297.612 69.6375 297.612 73.9687 297.738C80.1562 297.928 83.025 298.371 87.1875 299.637ZM231.187 299.637C241.481 302.738 249.356 307.863 257.4 316.596C263.081 322.671 266.006 326.911 265.162 327.734C264.881 328.05 262.744 329.189 260.437 330.328C258.131 331.404 255.937 332.48 255.544 332.606C255.206 332.796 253.069 330.771 250.762 328.113C241.256 316.849 229.444 311.091 216 311.091C202.556 311.091 190.687 316.849 181.237 328.05L177.131 332.923L172.237 330.581C169.537 329.316 167.119 328.05 166.837 327.734C165.544 326.468 174.712 315.204 181.35 309.952C189.675 303.37 197.044 300.08 208.687 297.802C209.475 297.612 213.637 297.612 217.969 297.738C224.156 297.928 227.025 298.371 231.187 299.637ZM375.187 299.637C385.481 302.738 393.356 307.863 401.4 316.596C407.081 322.671 410.006 326.911 409.162 327.734C408.881 328.05 406.744 329.189 404.437 330.328C402.131 331.404 399.937 332.48 399.544 332.606C399.206 332.796 397.069 330.771 394.762 328.113C385.256 316.849 373.444 311.091 360 311.091C346.556 311.091 334.687 316.849 325.238 328.05L321.131 332.923L316.238 330.581C313.537 329.316 311.119 328.05 310.838 327.734C309.6 326.468 318.881 315.077 325.406 309.952C333.675 303.37 341.1 300.08 352.687 297.802C353.475 297.612 357.637 297.612 361.969 297.738C368.156 297.928 371.025 298.371 375.187 299.637ZM519.188 299.637C529.481 302.738 537.356 307.863 545.4 316.596C551.081 322.671 554.006 326.911 553.163 327.734C552.881 328.05 550.744 329.189 548.438 330.328C546.131 331.404 543.938 332.48 543.544 332.606C543.206 332.796 541.069 330.771 538.763 328.113C529.256 316.849 517.444 311.091 504 311.091C490.556 311.091 478.688 316.849 469.238 328.05L465.131 332.923L460.238 330.581C457.537 329.316 455.119 328.05 454.838 327.734C453.6 326.468 462.881 315.077 469.406 309.952C477.675 303.37 485.1 300.08 496.688 297.802C497.475 297.612 501.638 297.612 505.969 297.738C512.156 297.928 515.025 298.371 519.188 299.637ZM663.188 299.637C673.481 302.738 681.356 307.863 689.4 316.596C695.081 322.671 698.006 326.911 697.163 327.734C696.881 328.05 694.744 329.189 692.438 330.328C690.131 331.404 687.938 332.48 687.6 332.606C687.263 332.796 685.125 330.708 682.819 328.05C673.088 316.786 661.444 311.091 648 311.091C634.556 311.091 622.688 316.849 613.238 328.05L609.131 332.923L604.238 330.581C601.538 329.316 599.119 328.05 598.838 327.734C597.6 326.468 606.881 315.077 613.406 309.952C621.675 303.37 629.1 300.08 640.688 297.802C641.475 297.612 645.638 297.612 649.969 297.738C656.156 297.928 659.025 298.371 663.188 299.637ZM149.569 312.609C151.987 313.938 153.562 315.963 154.631 318.874C155.194 320.393 155.194 321.026 154.519 322.481L153.731 324.19L144 324.253L134.269 324.316L133.425 322.355C132.637 320.456 132.694 320.14 133.931 317.609C137.081 311.344 143.662 309.192 149.569 312.609ZM293.569 312.609C295.988 313.938 297.562 315.963 298.631 318.874C299.194 320.393 299.194 321.026 298.519 322.481L297.731 324.19L288 324.253L278.269 324.316L277.425 322.355C276.637 320.456 276.694 320.14 277.931 317.609C281.081 311.344 287.662 309.192 293.569 312.609ZM437.569 312.609C439.988 313.938 441.562 315.963 442.631 318.874C443.194 320.393 443.194 321.026 442.519 322.481L441.731 324.19L432 324.253L422.269 324.316L421.425 322.355C420.637 320.456 420.694 320.14 421.931 317.609C425.081 311.344 431.662 309.192 437.569 312.609ZM581.569 312.609C583.988 313.938 585.563 315.963 586.631 318.874C587.194 320.393 587.194 321.026 586.519 322.481L585.731 324.19L576 324.253L566.269 324.316L565.425 322.355C564.638 320.456 564.694 320.14 565.931 317.609C569.081 311.344 575.663 309.192 581.569 312.609ZM83.25 326.468C88.1437 328.366 94.275 332.733 97.4812 336.593C98.9437 338.365 100.125 340.01 100.125 340.263C100.125 340.706 96.3 344.63 92.9812 347.667C91.6312 348.806 91.6312 348.806 88.7062 345.706C82.9687 339.694 78.1312 337.606 70.5937 338.048C64.8562 338.365 59.85 340.833 55.4062 345.516C51.9187 349.249 52.4812 349.376 47.025 343.807C43.3125 340.137 43.3125 339.947 47.3625 335.644C51.4125 331.214 57.375 327.481 63.2812 325.582C67.6125 324.19 78.5812 324.696 83.25 326.468ZM227.25 326.468C232.144 328.366 238.275 332.733 241.481 336.593C242.944 338.365 244.125 340.01 244.125 340.263C244.125 340.706 240.3 344.63 236.981 347.667C235.631 348.806 235.631 348.806 232.706 345.706C226.969 339.694 222.131 337.606 214.594 338.048C208.856 338.365 203.85 340.833 199.406 345.516C195.919 349.249 196.481 349.376 191.025 343.807C187.312 340.137 187.312 339.947 191.362 335.644C195.412 331.214 201.375 327.481 207.281 325.582C211.612 324.19 222.581 324.696 227.25 326.468ZM371.25 326.468C376.144 328.366 382.275 332.733 385.481 336.593C386.944 338.365 388.125 340.01 388.125 340.263C388.125 340.706 384.3 344.63 380.981 347.667C379.631 348.806 379.631 348.806 376.706 345.706C370.969 339.694 366.131 337.606 358.594 338.048C352.856 338.365 347.85 340.833 343.406 345.516C339.919 349.249 340.481 349.376 335.025 343.807C331.312 340.137 331.312 339.947 335.363 335.644C339.412 331.214 345.375 327.481 351.281 325.582C355.613 324.19 366.581 324.696 371.25 326.468ZM515.25 326.468C520.144 328.366 526.275 332.733 529.481 336.593C530.944 338.365 532.125 340.01 532.125 340.263C532.125 340.706 528.3 344.63 524.981 347.667C523.631 348.806 523.631 348.806 520.706 345.706C514.969 339.694 510.131 337.606 502.594 338.048C496.856 338.365 491.85 340.833 487.406 345.516C483.919 349.249 484.481 349.376 479.025 343.807C475.313 340.137 475.313 339.947 479.363 335.644C483.413 331.214 489.375 327.481 495.281 325.582C499.613 324.19 510.581 324.696 515.25 326.468ZM659.25 326.468C661.275 327.291 664.425 328.936 666.281 330.202C669.881 332.606 676.125 338.934 676.125 340.073C676.125 340.706 672.75 344.25 668.981 347.667C667.631 348.806 667.631 348.806 664.706 345.706C658.969 339.694 654.131 337.606 646.594 338.048C640.856 338.365 635.85 340.833 631.406 345.516C627.919 349.249 628.481 349.376 623.025 343.807C619.313 340.137 619.313 339.947 623.363 335.644C627.413 331.214 633.375 327.481 639.281 325.582C643.613 324.19 654.581 324.696 659.25 326.468ZM152.775 338.618C161.437 339.947 170.212 343.934 178.087 350.009C183.825 354.502 193.837 366.209 193.331 367.917C193.219 368.234 190.8 369.626 187.987 370.955L182.812 373.359L179.044 368.866C170.606 358.805 160.706 353.236 148.556 351.717C133.931 349.945 119.7 356.084 108.956 368.93L105.131 373.423L100.012 370.955C97.1437 369.626 94.725 368.17 94.6687 367.854C94.3875 367.031 99.2812 360.387 103.162 356.273C116.381 342.162 134.437 335.707 152.775 338.618ZM296.775 338.618C305.437 339.947 314.213 343.934 322.088 350.009C327.825 354.502 337.838 366.209 337.331 367.917C337.219 368.234 334.8 369.626 331.988 370.955L326.812 373.359L323.044 368.866C312.244 356.02 296.887 349.566 282.544 351.781C271.181 353.552 262.631 358.298 254.306 367.538L248.962 373.359L243.9 370.955C241.144 369.563 238.725 368.17 238.669 367.854C238.387 367.031 243.281 360.387 247.162 356.273C260.381 342.162 278.437 335.707 296.775 338.618ZM440.775 338.618C449.437 339.947 458.213 343.934 466.088 350.009C471.825 354.502 481.838 366.209 481.331 367.917C481.219 368.234 478.8 369.626 475.988 370.955L470.813 373.359L467.044 368.866C456.244 356.02 440.887 349.566 426.544 351.781C415.181 353.552 406.631 358.298 398.306 367.538L392.963 373.359L387.9 370.955C385.144 369.563 382.725 368.17 382.669 367.854C382.387 367.031 387.281 360.387 391.162 356.273C404.381 342.162 422.437 335.707 440.775 338.618ZM584.775 338.618C593.438 339.947 602.213 343.934 610.088 350.009C615.825 354.502 625.838 366.209 625.331 367.917C625.219 368.234 622.8 369.626 619.988 370.955L614.813 373.359L611.044 368.866C600.244 356.02 584.888 349.566 570.544 351.781C559.181 353.552 550.631 358.298 542.306 367.538L536.963 373.359L531.9 370.955C529.144 369.563 526.725 368.17 526.669 367.854C526.388 367.031 531.281 360.387 535.163 356.273C548.381 342.162 566.438 335.707 584.775 338.618ZM77.2312 352.856C79.8187 354.312 80.9437 355.641 82.2375 358.425C83.3062 360.83 83.3625 361.083 82.4625 362.855L81.5625 364.816H72H62.4375L61.5375 362.855C60.6375 360.956 60.6375 360.766 61.9312 358.172C64.9687 352.034 71.6625 349.692 77.2312 352.856ZM221.231 352.856C223.819 354.312 224.944 355.641 226.237 358.425C227.306 360.83 227.362 361.083 226.462 362.855L225.562 364.816H216H206.437L205.537 362.855C204.637 360.956 204.637 360.766 205.931 358.172C208.969 352.034 215.662 349.692 221.231 352.856ZM365.231 352.856C367.819 354.312 368.944 355.641 370.238 358.425C371.306 360.83 371.363 361.083 370.463 362.855L369.562 364.816H360H350.437L349.537 362.855C348.637 360.956 348.637 360.766 349.931 358.172C352.969 352.034 359.662 349.692 365.231 352.856ZM509.231 352.856C511.819 354.312 512.944 355.641 514.238 358.425C515.306 360.83 515.363 361.083 514.463 362.855L513.563 364.816H504H494.438L493.538 362.855C492.638 360.956 492.638 360.766 493.931 358.172C496.969 352.034 503.663 349.692 509.231 352.856ZM653.231 352.856C655.819 354.312 656.944 355.641 658.238 358.425C659.306 360.83 659.363 361.083 658.463 362.855L657.563 364.816H648H638.438L637.538 362.855C636.638 360.956 636.638 360.766 637.931 358.172C640.969 352.034 647.663 349.692 653.231 352.856ZM151.312 365.892C155.531 366.778 159.075 368.423 163.35 371.461C166.669 373.802 172.125 379.624 172.125 380.763C172.125 381.206 168.3 385.13 164.981 388.167C163.631 389.306 163.631 389.306 160.594 386.079C155.137 380.257 147.487 377.346 140.794 378.548C136.181 379.371 131.006 382.282 127.406 386.079C124.369 389.306 124.369 389.306 123.019 388.167C119.306 384.813 115.875 381.206 115.875 380.637C115.875 379.498 121.612 373.613 125.269 370.955C129.094 368.234 134.606 366.019 139.781 365.196C143.325 364.627 146.194 364.816 151.312 365.892ZM295.312 365.892C299.531 366.778 303.075 368.423 307.35 371.461C310.669 373.802 316.125 379.624 316.125 380.763C316.125 381.206 312.3 385.13 308.981 388.167C307.631 389.306 307.631 389.306 304.594 386.079C299.137 380.257 291.488 377.346 284.794 378.548C280.181 379.371 275.006 382.282 271.406 386.079C268.369 389.306 268.369 389.306 267.019 388.167C263.306 384.813 259.875 381.206 259.875 380.637C259.875 379.498 265.613 373.613 269.269 370.955C273.094 368.234 278.606 366.019 283.781 365.196C287.325 364.627 290.194 364.816 295.312 365.892ZM439.312 365.892C443.531 366.778 447.075 368.423 451.35 371.461C454.669 373.802 460.125 379.624 460.125 380.763C460.125 381.206 456.3 385.13 452.981 388.167C451.631 389.306 451.631 389.306 448.594 386.079C438.975 375.827 425.025 375.827 415.406 386.079C412.369 389.306 412.369 389.306 411.019 388.167C407.306 384.813 403.875 381.206 403.875 380.637C403.875 379.498 409.613 373.613 413.269 370.955C417.094 368.234 422.606 366.019 427.781 365.196C431.325 364.627 434.194 364.816 439.312 365.892ZM583.313 365.892C587.531 366.778 591.075 368.423 595.35 371.461C598.669 373.802 604.125 379.624 604.125 380.763C604.125 381.206 600.3 385.13 596.981 388.167C595.631 389.306 595.631 389.306 592.594 386.079C582.975 375.827 569.025 375.827 559.406 386.079C556.369 389.306 556.369 389.306 555.019 388.167C551.306 384.813 547.875 381.206 547.875 380.637C547.875 379.498 553.613 373.613 557.269 370.955C561.094 368.234 566.606 366.019 571.781 365.196C575.325 364.627 578.194 364.816 583.313 365.892Z" fill="#34B4CE"/>
<path d="M67.2187 392.091C58.5562 393.546 51.075 396.71 44.3812 401.899L40.7812 404.684L56.4187 404.873C64.9687 404.937 79.0312 404.937 87.6375 404.873L103.219 404.684L99.6187 401.899C94.7812 398.166 87.75 394.559 82.8562 393.356C78.5812 392.28 70.1437 391.584 67.2187 392.091Z" fill="#34B4CE"/>
<path d="M211.219 392.091C202.556 393.546 195.075 396.71 188.381 401.899L184.781 404.684L200.419 404.873C208.969 404.937 223.031 404.937 231.637 404.873L247.219 404.684L243.619 401.899C238.781 398.166 231.75 394.559 226.856 393.356C222.581 392.28 214.144 391.584 211.219 392.091Z" fill="#34B4CE"/>
<path d="M355.219 392.091C346.556 393.546 339.075 396.71 332.381 401.899L328.781 404.684L344.419 404.873C352.969 404.937 367.031 404.937 375.638 404.873L391.219 404.684L387.619 401.899C382.781 398.166 375.75 394.559 370.856 393.356C366.581 392.28 358.144 391.584 355.219 392.091Z" fill="#34B4CE"/>
<path d="M499.219 392.091C490.556 393.546 483.075 396.71 476.381 401.899L472.781 404.684L488.419 404.873C496.969 404.937 511.031 404.937 519.638 404.873L535.219 404.684L531.619 401.899C526.781 398.166 519.75 394.559 514.856 393.356C510.581 392.28 502.144 391.584 499.219 392.091Z" fill="#34B4CE"/>
<path d="M643.219 392.091C634.556 393.546 627.075 396.71 620.381 401.899L616.781 404.684L632.419 404.873C640.969 404.937 655.031 404.937 663.637 404.873L679.219 404.684L675.619 401.899C670.781 398.166 663.75 394.559 658.856 393.356C654.581 392.28 646.144 391.584 643.219 392.091Z" fill="#34B4CE"/>
</g>
<defs>
<clipPath id="clip0_1_144">
<rect width="720" height="405" fill="white"/>
</clipPath>
</defs>
</svg>
